<svg width="68" height="59" viewBox="0 0 68 59" fill="none" xmlns="http://www.w3.org/2000/svg">
<path d="M9.96094 59H32.1406V38.0273H24.1719V31.1133H32.1406V22.4707C32.1406 17.7051 36.609 13.8281 42.1016 13.8281H52.0625V20.7422H44.0938C41.8966 20.7422 40.1094 22.2929 40.1094 24.1992V31.1133H51.703L50.3748 38.0273H40.1094V59H58.0391C63.5316 59 68 55.123 68 50.3574V8.64258C68 3.87701 63.5316 0 58.0391 0H9.96094C4.46841 0 0 3.87701 0 8.64258V50.3574C0 55.123 4.46841 59 9.96094 59ZM3.98438 8.64258C3.98438 5.78333 6.66553 3.45703 9.96094 3.45703H58.0391C61.3345 3.45703 64.0156 5.78333 64.0156 8.64258V50.3574C64.0156 53.2167 61.3345 55.543 58.0391 55.543H44.0938V41.4844H53.7502L56.4064 27.6562H44.0938V24.1992H56.0469V10.3711H42.1016C34.4119 10.3711 28.1562 15.7988 28.1562 22.4707V27.6562H20.1875V41.4844H28.1562V55.543H9.96094C6.66553 55.543 3.98438 53.2167 3.98438 50.3574V8.64258Z" fill="white"/>
</svg>
