<svg width="21" height="31" viewBox="0 0 21 31" fill="none" xmlns="http://www.w3.org/2000/svg">
<g clip-path="url(#clip0)">
<path d="M3.07617 30.6H9.92578V19.7227H7.46484V16.1367H9.92578V11.6543C9.92578 9.18266 11.3057 7.17188 13.002 7.17188H16.0781V10.7578H13.6172C12.9387 10.7578 12.3867 11.5621 12.3867 12.5508V16.1367H15.9671L15.5569 19.7227H12.3867V30.6H17.9238C19.62 30.6 21 28.5892 21 26.1176V4.48242C21 2.01079 19.62 0 17.9238 0H3.07617C1.37995 0 0 2.01079 0 4.48242V26.1176C0 28.5892 1.37995 30.6 3.07617 30.6ZM1.23047 4.48242C1.23047 2.99949 2.05847 1.79297 3.07617 1.79297H17.9238C18.9415 1.79297 19.7695 2.99949 19.7695 4.48242V26.1176C19.7695 27.6005 18.9415 28.807 17.9238 28.807H13.6172V21.5156H16.5993L17.4196 14.3438H13.6172V12.5508H17.3086V5.37891H13.002C10.6272 5.37891 8.69531 8.19396 8.69531 11.6543V14.3438H6.23438V21.5156H8.69531V28.807H3.07617C2.05847 28.807 1.23047 27.6005 1.23047 26.1176V4.48242Z" fill="white"/>
</g>
<defs>
<clipPath id="clip0">
<rect width="21" height="30.6" fill="white"/>
</clipPath>
</defs>
</svg>
