<svg width="19" height="35" viewBox="0 0 19 35" fill="none" xmlns="http://www.w3.org/2000/svg">
<g clip-path="url(#clip0)">
<path d="M2.87825 35H9.03927V22.5586H6.82573V18.457H9.03927V13.3301C9.03927 10.503 10.2805 8.20312 11.8062 8.20312H14.5731V12.3047H12.3596C11.7493 12.3047 11.2528 13.2246 11.2528 14.3555V18.457H14.4733L14.1043 22.5586H11.2528V35H16.2333C17.759 35 19.0002 32.7001 19.0002 29.873V5.12695C19.0002 2.29992 17.759 0 16.2333 0H2.87825C1.35255 0 0.111328 2.29992 0.111328 5.12695V29.873C0.111328 32.7001 1.35255 35 2.87825 35ZM1.2181 5.12695C1.2181 3.43079 1.96286 2.05078 2.87825 2.05078H16.2333C17.1487 2.05078 17.8934 3.43079 17.8934 5.12695V29.873C17.8934 31.5692 17.1487 32.9492 16.2333 32.9492H12.3596V24.6094H15.0419L15.7798 16.4062H12.3596V14.3555H15.6799V6.15234H11.8062C9.67019 6.15234 7.9325 9.37218 7.9325 13.3301V16.4062H5.71896V24.6094H7.9325V32.9492H2.87825C1.96286 32.9492 1.2181 31.5692 1.2181 29.873V5.12695Z" fill="white"/>
</g>
<defs>
<clipPath id="clip0">
<rect width="18.8889" height="35" fill="white" transform="translate(0.111328)"/>
</clipPath>
</defs>
</svg>
