<svg width="67" height="49" viewBox="0 0 67 49" fill="none" xmlns="http://www.w3.org/2000/svg">
<g clip-path="url(#clip0)">
<path d="M67 9.85402C62.7854 9.99608 62.8774 9.98449 62.401 10.0137L64.897 4.80045C64.897 4.80045 57.1058 6.89657 55.1306 7.27153C49.9433 3.86174 42.2328 3.71108 36.7204 6.18889C32.2062 8.21847 29.7833 11.7038 30.5914 15.7775C21.806 14.8859 14.4037 11.8402 8.55953 6.70591L6.71114 5.08232L5.32996 6.93732C3.58432 9.2813 3.00465 11.9614 3.69729 14.4837C3.9815 15.5185 4.46455 16.5054 5.13367 17.4295L3.54803 16.9802L3.35992 18.9178C3.16925 20.8861 4.06533 23.1837 5.7573 25.0633C6.23371 25.5927 6.84711 26.174 7.6246 26.7475L6.8052 26.6555L7.80505 28.8758C9.11926 31.7928 11.8489 34.0497 15.3913 35.3043C11.8535 36.4023 8.99556 37.1029 4.29791 38.233L0 39.2663L3.96974 40.8536C5.48331 41.4589 10.8317 43.4802 16.1161 44.0866C27.8628 45.4339 41.0883 44.3367 49.9919 38.4722C57.4912 33.5327 59.952 26.5064 59.4408 19.1944C59.3636 18.0875 59.7782 17.031 60.6083 16.2201C62.2712 14.5966 66.9898 9.86486 67 9.85402V9.85402ZM57.4692 14.5005C56.0906 15.8467 55.4 17.566 55.5237 19.341C56.0395 26.7165 53.2955 32.4362 47.3675 36.3406C40.4427 40.9018 29.2731 42.6922 16.7239 41.2525C14.4513 40.9919 12.1024 40.4084 10.1585 39.8255C14.097 38.8345 17.1385 37.9511 22.0503 36.2509L28.9071 33.8774L21.3367 33.523C17.7105 33.3533 14.691 32.068 12.835 29.9812C13.8205 29.9393 14.7708 29.8227 15.7169 29.6298L22.9372 28.1591L15.6566 26.8552C12.1188 26.2215 10.1022 24.6734 9.03339 23.4861C8.33155 22.7059 7.87303 21.9066 7.59802 21.1698C8.32797 21.313 9.17907 21.415 10.5516 21.5145L17.2903 22.002L11.9511 18.9559C8.10408 16.7615 6.56239 13.4646 7.69259 10.2952C19.6989 19.4027 33.796 18.7182 35.215 18.9589C34.9026 16.7402 34.8945 16.7349 34.8127 16.5237C32.9955 11.8257 36.978 9.44018 38.7742 8.63269C42.5262 6.94629 48.4819 6.69208 52.607 9.47046C53.498 10.0701 54.7028 10.306 55.8304 10.1011C56.8425 9.9172 57.6732 9.72243 58.4865 9.51046L56.7935 13.0462L58.9547 13.0474C58.5468 13.4474 58.0576 13.9263 57.4692 14.5005Z" fill="white"/>
</g>
<defs>
<clipPath id="clip0">
<rect width="67" height="49" fill="white"/>
</clipPath>
</defs>
</svg>
