<svg width="22" height="26" viewBox="0 0 22 26" fill="none" xmlns="http://www.w3.org/2000/svg">
<g clip-path="url(#clip0)">
<path d="M21.45 5.3112C20.1479 5.38524 20.1763 5.3792 20.0291 5.3944L20.8003 2.67715C20.8003 2.67715 18.3931 3.7697 17.7829 3.96514C16.1802 2.18787 13.798 2.10934 12.0949 3.40084C10.7003 4.45871 9.9517 6.27534 10.2014 8.39867C7.48707 7.93394 5.20011 6.34646 3.39451 3.67033L2.82344 2.82407L2.39672 3.79094C1.85739 5.01268 1.6783 6.40959 1.8923 7.72428C1.9801 8.26364 2.12935 8.77805 2.33608 9.25973L1.84618 9.02552L1.78806 10.0355C1.72916 11.0614 2.006 12.2589 2.52875 13.2387C2.67594 13.5146 2.86545 13.8176 3.10566 14.1165L2.8525 14.0686L3.16141 15.2258C3.56744 16.7462 4.41078 17.9226 5.50523 18.5765C4.4122 19.1488 3.52923 19.514 2.07786 20.103L0.75 20.6416L1.97647 21.4689C2.4441 21.7844 4.0965 22.838 5.72917 23.154C9.35836 23.8563 13.4444 23.2844 16.1952 20.2277C18.5122 17.6531 19.2725 13.9908 19.1146 10.1796C19.0907 9.60268 19.2188 9.05202 19.4753 8.62938C19.989 7.78312 21.4468 5.31685 21.45 5.3112V5.3112ZM18.5054 7.73305C18.0795 8.43472 17.8661 9.33086 17.9043 10.256C18.0637 14.1003 17.2159 17.0816 15.3844 19.1167C13.245 21.4941 9.79409 22.4272 5.91695 21.6769C5.2148 21.541 4.48911 21.2369 3.88851 20.9331C5.10535 20.4165 6.04503 19.9561 7.56256 19.0699L9.68101 17.8328L7.34209 17.648C6.22175 17.5596 5.28886 16.8897 4.71543 15.802C5.01991 15.7802 5.3135 15.7194 5.60583 15.6188L7.83657 14.8523L5.58719 14.1726C4.49417 13.8423 3.87114 13.0354 3.54091 12.4166C3.32408 12.0099 3.18241 11.5933 3.09745 11.2093C3.32297 11.2839 3.58592 11.3371 4.00996 11.3889L6.09193 11.643L4.44237 10.0553C3.2538 8.91153 2.77749 7.1931 3.12667 5.54113C6.83609 10.2882 11.1914 9.9314 11.6298 10.0569C11.5334 8.90042 11.5308 8.89769 11.5056 8.7876C10.9441 6.33886 12.1745 5.09549 12.7295 4.67461C13.8887 3.79562 15.7287 3.66312 17.0032 5.11128C17.2785 5.42382 17.6507 5.54678 17.9991 5.44C18.3118 5.34413 18.5684 5.24261 18.8197 5.13213L18.2966 6.97506L18.9644 6.97565C18.8383 7.18414 18.6872 7.43375 18.5054 7.73305Z" fill="white"/>
</g>
<defs>
<clipPath id="clip0">
<rect width="20.7" height="25.54" fill="white" transform="translate(0.75 0.174805)"/>
</clipPath>
</defs>
</svg>
