<svg width="19" height="30" viewBox="0 0 19 30" fill="none" xmlns="http://www.w3.org/2000/svg">
<g clip-path="url(#clip0)">
<path d="M18.6111 6.40579C17.4404 6.49006 17.4659 6.48319 17.3336 6.50048L18.0269 3.40791C18.0269 3.40791 15.8627 4.65137 15.3141 4.8738C13.8731 2.85104 11.7313 2.76167 10.2001 4.23156C8.94617 5.43555 8.27313 7.50311 8.49761 9.91973C6.05721 9.39081 4.00103 7.58405 2.37765 4.53827L1.8642 3.57512L1.48054 4.67554C0.995643 6.06604 0.834625 7.65591 1.02702 9.15219C1.10597 9.76604 1.24015 10.3515 1.42602 10.8997L0.985562 10.6332L0.933309 11.7826C0.880346 12.9502 1.12926 14.3132 1.59925 15.4283C1.73158 15.7423 1.90197 16.0871 2.11794 16.4273L1.89033 16.3728L2.16807 17.6899C2.53313 19.4203 3.29136 20.7592 4.27536 21.5034C3.29264 22.1548 2.49876 22.5704 1.19386 23.2408L0 23.8537L1.1027 24.7954C1.52314 25.1544 3.0088 26.3535 4.4767 26.7132C7.73967 27.5125 11.4134 26.8616 13.8866 23.3827C15.9698 20.4525 16.6533 16.2843 16.5113 11.9467C16.4899 11.29 16.605 10.6633 16.8356 10.1823C17.2975 9.21916 18.6083 6.41222 18.6111 6.40579ZM15.9637 9.16217C15.5807 9.96076 15.3889 10.9807 15.4232 12.0336C15.5665 16.4089 14.8043 19.802 13.1576 22.1182C11.2341 24.824 8.13142 25.886 4.64553 25.032C4.01424 24.8774 3.36179 24.5312 2.82179 24.1855C3.91584 23.5976 4.76069 23.0736 6.12508 22.0649L8.02975 20.6569L5.92686 20.4467C4.91957 20.346 4.08083 19.5836 3.56526 18.3456C3.83902 18.3208 4.10298 18.2516 4.36581 18.1372L6.37144 17.2647L4.34905 16.4912C3.36633 16.1153 2.80618 15.197 2.50927 14.4926C2.31432 14.0298 2.18695 13.5556 2.11056 13.1185C2.31332 13.2035 2.54974 13.264 2.93099 13.323L4.80286 13.6122L3.31976 11.8052C2.25113 10.5034 1.82289 8.54764 2.13683 6.66748C5.47192 12.0702 9.38776 11.6642 9.78193 11.807C9.69517 10.4908 9.6929 10.4877 9.67018 10.3624C9.1654 7.5754 10.2717 6.16029 10.7706 5.68127C11.8128 4.68086 13.4672 4.53006 14.613 6.17825C14.8605 6.53397 15.1952 6.67391 15.5084 6.55238C15.7896 6.44327 16.0203 6.32773 16.2462 6.20198L15.776 8.29948L16.3763 8.30015C16.263 8.53744 16.1271 8.82153 15.9637 9.16217Z" fill="white"/>
</g>
<defs>
<clipPath id="clip0">
<rect width="18.6111" height="29.0678" fill="white" transform="translate(0 0.55957)"/>
</clipPath>
</defs>
</svg>
