<svg width="68" height="55" viewBox="0 0 68 55" fill="none" xmlns="http://www.w3.org/2000/svg">
<g clip-path="url(#clip0)">
<path d="M60.5278 32.947L60.491 32.9193C59.9105 32.4849 58.132 31.0824 57.5323 30.4694C56.8283 29.7046 56.9907 29.2034 57.5183 28.4525C58.1849 27.5036 59.5209 26.048 60.9346 24.5067C65.4627 19.5716 68.3861 16.1551 67.7843 13.7284L67.4601 12.4322L50.7376 12.438C50.679 12.5659 49.8063 15.6725 46.1239 20.9624C43.4536 24.7981 41.7022 26.0031 41.0853 26.2158L40.9899 26.1922C40.7891 25.9913 40.4384 25.4489 40.2941 24.051C40.1437 22.5866 40.277 20.8136 40.4062 19.099C40.5572 17.0885 40.6874 15.3521 40.3756 14.1097L39.8677 12.0857C39.2539 12.0063 37.007 11.3037 30.7467 11.2503C25.3268 11.2053 23.7346 11.8398 22.9527 12.3989L20.3665 14.2485L23.6355 15.1398C24.8796 15.4791 25.2925 15.8705 25.6313 17.8108C25.8523 19.0755 25.968 21.2008 25.7294 23.0982C25.3864 25.8189 24.5641 26.3251 24.5216 26.352C24.38 26.3129 23.1789 25.887 21.0939 22.3146C19.6475 19.8369 18.3795 16.906 17.4529 14.766C16.3925 12.3153 16.5834 12.837 16.0454 11.6792L-0.132812 11.6787L0.914125 13.8734C5.27879 23.0318 9.2834 30.1839 14.6426 35.3208C20.5637 40.9963 27.9223 43.9679 37.8345 43.9679H39.8267V42.3535C39.8267 40.8441 39.9808 39.7573 40.3113 38.9332C40.5131 38.4312 40.7813 38.0162 41.063 37.5811C41.4812 36.9403 41.89 36.6658 42.1131 36.625C42.3154 36.5876 42.6713 36.7078 43.0656 36.9462C44.1976 37.6303 45.0962 38.5292 46.0476 39.481C47.4204 40.8546 48.8398 42.2744 51.0919 43.204C52.3225 43.7119 54.5783 43.9684 55.8197 43.9684C56.1481 43.9684 67.8528 43.9679 67.8673 43.9679L67.7817 42.287C67.6541 39.7737 65.2131 36.6309 60.5278 32.947V32.947ZM55.897 40.739H55.8649C55.0089 40.7503 53.3752 40.5229 52.8999 40.3269C51.4027 39.7089 50.3563 38.6616 49.1438 37.4491C48.0798 36.3841 46.9794 35.283 45.4474 34.3576C44.2085 33.6088 43.0832 33.3897 42.1898 33.3897C41.8329 33.3897 41.5123 33.4246 41.2373 33.4751C40.2002 33.6643 38.717 34.2689 37.5378 36.0763C37.2052 36.5905 36.828 37.1728 36.5225 37.9347C36.2024 38.7318 36.0031 39.6177 35.9082 40.6953C28.4385 40.3513 22.6098 37.9565 17.6854 33.2363C13.107 28.8473 9.50493 22.7085 5.6902 14.9064C5.9662 14.9064 12.8823 14.9073 13.2906 14.9073C13.4156 15.1919 13.5505 15.5039 13.6937 15.8343C14.6924 18.143 16.0605 21.3042 17.6724 24.0001C19.9805 27.8605 22.0884 29.5822 24.5065 29.5822C25.7138 29.5822 26.7965 29.1677 27.6375 28.3827C28.8364 27.2639 29.5327 25.4174 29.7661 22.7371C29.9503 20.6236 29.7791 18.5184 29.5768 17.3584C29.4097 16.404 29.1716 15.4021 28.5905 14.5045C31.0668 14.4141 34.3824 14.5571 36.483 14.8013C36.674 15.6439 36.5494 17.3 36.4291 18.9023C36.138 22.7728 35.8377 26.767 38.3658 28.6358C38.8104 28.9646 39.282 29.1408 39.2955 29.1479L40.5821 29.4679C41.0786 29.3439 43.9543 30.5261 49.3996 22.825C51.1443 20.3574 52.7687 17.514 53.6434 15.6569C55.6719 15.6536 62.5828 15.6599 63.3947 15.6607C62.2446 17.712 59.5188 20.6378 57.7372 22.5798C56.1839 24.2725 54.8428 25.7344 54.0558 26.8544C52.5938 28.9352 52.8398 30.7897 54.3624 32.4257L54.3863 32.4509C55.2361 33.3275 57.3346 34.9504 57.7699 35.2775C60.9232 37.7585 62.4427 39.5407 63.1659 40.7386H55.897V40.739Z" fill="white"/>
</g>
<defs>
<clipPath id="clip0">
<rect width="68" height="55" fill="white"/>
</clipPath>
</defs>
</svg>
