<svg width="21" height="28" viewBox="0 0 21 28" fill="none" xmlns="http://www.w3.org/2000/svg">
<g clip-path="url(#clip0)">
<path d="M18.6924 16.273L18.6811 16.2593C18.5018 16.0447 17.9525 15.3519 17.7673 15.049C17.5499 14.6712 17.6001 14.4237 17.763 14.0527C17.9689 13.584 18.3814 12.8649 18.818 12.1035C20.2164 9.66555 21.1192 7.97781 20.9334 6.77899L20.8333 6.13866L15.669 6.14157C15.6509 6.20471 15.3814 7.73938 14.2441 10.3526C13.4195 12.2474 12.8786 12.8427 12.6881 12.9478L12.6586 12.9361C12.5966 12.8369 12.4883 12.5689 12.4438 11.8784C12.3973 11.1549 12.4385 10.2791 12.4784 9.4321C12.525 8.4389 12.5652 7.58111 12.4689 6.96737L12.3121 5.96752C12.1225 5.92827 11.4286 5.58121 9.4953 5.55483C7.8215 5.5326 7.32979 5.84602 7.08835 6.12225L6.28966 7.03591L7.29919 7.47623C7.68339 7.64384 7.81093 7.8372 7.91555 8.79572C7.9838 9.42047 8.01953 10.4704 7.94583 11.4077C7.83993 12.7517 7.58598 13.0018 7.57284 13.0151C7.52911 12.9958 7.1582 12.7854 6.51429 11.0206C6.0676 9.79661 5.67603 8.34876 5.38988 7.29159C5.0624 6.08092 5.12136 6.33867 4.95521 5.76668L-0.0410156 5.76647L0.282303 6.85065C1.63021 11.3749 2.86693 14.908 4.52198 17.4456C6.35054 20.2493 8.62307 21.7173 11.6842 21.7173H12.2994V20.9198C12.2994 20.1742 12.347 19.6373 12.4491 19.2302C12.5114 18.9822 12.5942 18.7772 12.6812 18.5622C12.8104 18.2457 12.9366 18.1101 13.0055 18.0899C13.068 18.0714 13.1779 18.1308 13.2997 18.2486C13.6493 18.5865 13.9268 19.0306 14.2206 19.5008C14.6445 20.1793 15.0829 20.8807 15.7784 21.34C16.1584 21.5909 16.8551 21.7175 17.2385 21.7175C17.3399 21.7175 20.9545 21.7173 20.959 21.7173L20.9326 20.887C20.8932 19.6454 20.1394 18.0928 18.6924 16.273V16.273ZM17.2623 20.1222H17.2524C16.988 20.1278 16.4835 20.0155 16.3367 19.9187C15.8744 19.6134 15.5512 19.096 15.1768 18.497C14.8482 17.9709 14.5083 17.427 14.0352 16.9698C13.6526 16.5999 13.3051 16.4917 13.0292 16.4917C12.919 16.4917 12.82 16.5089 12.7351 16.5339C12.4148 16.6273 11.9567 16.926 11.5925 17.8189C11.4898 18.0729 11.3734 18.3606 11.279 18.7369C11.1801 19.1307 11.1186 19.5683 11.0893 20.1006C8.78249 19.9307 6.98244 18.7477 5.46166 16.4159C4.04774 14.2477 2.93535 11.2152 1.75727 7.36096C1.8425 7.36096 3.97836 7.36137 4.10445 7.36137C4.14307 7.50198 4.18472 7.65609 4.22894 7.81934C4.53736 8.9598 4.95986 10.5215 5.45765 11.8532C6.17046 13.7603 6.82142 14.6108 7.5682 14.6108C7.94102 14.6108 8.2754 14.406 8.53511 14.0182C8.90537 13.4656 9.12039 12.5534 9.19248 11.2293C9.24936 10.1852 9.19649 9.14527 9.134 8.57224C9.08241 8.10077 9.00887 7.60583 8.82943 7.1624C9.59415 7.11774 10.6181 7.18836 11.2668 7.30903C11.3258 7.72526 11.2873 8.54337 11.2502 9.3349C11.1603 11.247 11.0675 13.2201 11.8483 14.1433C11.9856 14.3057 12.1312 14.3927 12.1354 14.3963L12.5327 14.5543C12.686 14.493 13.5741 15.0771 15.2558 11.2727C15.7946 10.0537 16.2962 8.64909 16.5663 7.73169C17.1928 7.73003 19.327 7.73315 19.5778 7.73356C19.2226 8.74691 18.3808 10.1923 17.8306 11.1516C17.3509 11.9878 16.9368 12.71 16.6937 13.2633C16.2422 14.2912 16.3182 15.2073 16.7884 16.0155L16.7958 16.0279C17.0582 16.461 17.7063 17.2627 17.8407 17.4243C18.8145 18.6499 19.2838 19.5303 19.5071 20.122H17.2623V20.1222Z" fill="white"/>
</g>
<defs>
<clipPath id="clip0">
<rect width="21" height="27.17" fill="white"/>
</clipPath>
</defs>
</svg>
