<svg width="20" height="33" viewBox="0 0 20 33" fill="none" xmlns="http://www.w3.org/2000/svg">
<g clip-path="url(#clip0)">
<path d="M17.7593 19.5451L17.7491 19.5287C17.5879 19.271 17.0938 18.439 16.9273 18.0753C16.7317 17.6216 16.7768 17.3243 16.9234 16.8789C17.1085 16.316 17.4796 15.4525 17.8723 14.5382C19.1301 11.6106 19.9422 9.58384 19.775 8.14423L19.685 7.37529L15.0398 7.37878C15.0235 7.4546 14.7812 9.29751 13.7583 12.4356C13.0165 14.711 12.53 15.4258 12.3586 15.552L12.3321 15.5381C12.2764 15.4188 12.1789 15.0971 12.1389 14.2678C12.0971 13.3991 12.1341 12.3473 12.17 11.3302C12.2119 10.1375 12.2481 9.10746 12.1615 8.37045L12.0204 7.16978C11.8499 7.12264 11.2258 6.70587 9.4868 6.67419C7.98128 6.64751 7.539 7.02387 7.32183 7.35559L6.60343 8.45275L7.51148 8.98151C7.85705 9.18278 7.97177 9.41498 8.06587 10.566C8.12726 11.3163 8.1594 12.577 8.09311 13.7026C7.99785 15.3166 7.76944 15.6169 7.75762 15.6328C7.71828 15.6096 7.38466 15.357 6.80548 13.2377C6.4037 11.7679 6.05149 10.0293 5.79411 8.75978C5.49954 7.30595 5.55258 7.61548 5.40313 6.92859L0.90918 6.92834L1.2 8.23028C2.4124 13.6632 3.52479 17.906 5.01346 20.9533C6.6582 24.3201 8.70227 26.083 11.4556 26.083H12.009V25.1252C12.009 24.2298 12.0518 23.5851 12.1436 23.0962C12.1997 22.7984 12.2742 22.5523 12.3525 22.2941C12.4686 21.914 12.5822 21.7512 12.6441 21.727C12.7003 21.7048 12.7992 21.7761 12.9087 21.9175C13.2232 22.3233 13.4728 22.8566 13.7371 23.4212C14.1184 24.2361 14.5127 25.0783 15.1383 25.6298C15.4801 25.9311 16.1067 26.0832 16.4515 26.0832C16.5428 26.0832 19.794 26.083 19.7981 26.083L19.7743 25.0858C19.7389 23.5948 19.0608 21.7305 17.7593 19.5451ZM16.473 24.1675H16.4641C16.2263 24.1742 15.7725 24.0393 15.6405 23.923C15.2246 23.5564 14.9339 22.9351 14.5971 22.2158C14.3015 21.5841 13.9959 20.9308 13.5703 20.3819C13.2262 19.9377 12.9136 19.8077 12.6655 19.8077C12.5663 19.8077 12.4773 19.8284 12.4009 19.8584C12.1128 19.9706 11.7008 20.3293 11.3732 21.4015C11.2808 21.7065 11.1761 22.052 11.0912 22.5039C11.0023 22.9768 10.9469 23.5023 10.9206 24.1415C8.84566 23.9375 7.22657 22.5169 5.85867 19.7167C4.58689 17.1131 3.58633 13.4714 2.52668 8.84308C2.60335 8.84308 4.52449 8.84358 4.63791 8.84358C4.67264 9.01243 4.7101 9.1975 4.74988 9.39354C5.02729 10.7631 5.40731 12.6384 5.85507 14.2376C6.49622 16.5277 7.08174 17.5491 7.75344 17.5491C8.08879 17.5491 8.38954 17.3031 8.62315 16.8375C8.95619 16.1738 9.14959 15.0784 9.21444 13.4884C9.26559 12.2346 9.21804 10.9858 9.16183 10.2977C9.11543 9.73149 9.04928 9.13714 8.88788 8.60464C9.57572 8.55102 10.4967 8.63582 11.0802 8.78073C11.1333 9.28055 11.0987 10.263 11.0653 11.2135C10.9844 13.5096 10.901 15.879 11.6032 16.9876C11.7267 17.1827 11.8577 17.2872 11.8615 17.2914L12.2189 17.4812C12.3568 17.4076 13.1556 18.109 14.6682 13.5405C15.1528 12.0767 15.604 10.3899 15.847 9.28828C16.4105 9.28629 18.3302 9.29003 18.5557 9.29053C18.2362 10.5074 17.4791 12.2431 16.9842 13.3951C16.5527 14.3992 16.1802 15.2664 15.9616 15.9309C15.5555 17.1652 15.6238 18.2654 16.0467 19.2358L16.0534 19.2508C16.2894 19.7708 16.8723 20.7336 16.9933 20.9276C17.8692 22.3994 18.2913 23.4566 18.4922 24.1672H16.473V24.1675Z" fill="white"/>
</g>
<defs>
<clipPath id="clip0">
<rect width="18.8889" height="32.6271" fill="white" transform="translate(0.945312)"/>
</clipPath>
</defs>
</svg>
