<svg width="21" height="26" viewBox="0 0 21 26" fill="none" xmlns="http://www.w3.org/2000/svg">
<g clip-path="url(#clip0)">
<path d="M3.03223 22.8584H17.6678C19.3398 22.8584 20.7 21.1532 20.7 19.0571V6.89307C20.7 4.79702 19.3398 3.0918 17.6678 3.0918H3.03223C1.36024 3.0918 0 4.79702 0 6.89307V19.0571C0 21.1532 1.36024 22.8584 3.03223 22.8584ZM1.21289 6.89307C1.21289 5.63548 2.02907 4.6123 3.03223 4.6123H17.6678C18.6709 4.6123 19.4871 5.63548 19.4871 6.89307V19.0571C19.4871 20.3147 18.6709 21.3379 17.6678 21.3379H3.03223C2.02907 21.3379 1.21289 20.3147 1.21289 19.0571V6.89307Z" fill="white"/>
<path d="M7.31836 7.88184V18.2161L14.6159 12.9643L7.31836 7.88184ZM8.53125 10.4659L12.1497 12.986L8.53125 15.5901V10.4659Z" fill="white"/>
</g>
<defs>
<clipPath id="clip0">
<rect width="20.7" height="25.95" fill="white"/>
</clipPath>
</defs>
</svg>
