<svg width="67" height="50" viewBox="0 0 67 50" fill="none" xmlns="http://www.w3.org/2000/svg">
<path d="M9.81445 44.043H57.1855C62.5973 44.043 67 40.7574 67 36.7188V13.2812C67 9.24263 62.5973 5.95703 57.1855 5.95703H9.81445C4.4027 5.95703 0 9.24263 0 13.2812V36.7188C0 40.7574 4.4027 44.043 9.81445 44.043ZM3.92578 13.2812C3.92578 10.8582 6.5675 8.88672 9.81445 8.88672H57.1855C60.4325 8.88672 63.0742 10.8582 63.0742 13.2812V36.7188C63.0742 39.1418 60.4325 41.1133 57.1855 41.1133H9.81445C6.5675 41.1133 3.92578 39.1418 3.92578 36.7188V13.2812Z" fill="white"/>
<path d="M23.6855 15.1865V35.0985L47.3057 24.9792L23.6855 15.1865ZM27.6113 20.1655L39.3232 25.0212L27.6113 30.0387V20.1655Z" fill="white"/>
</svg>
