<svg width="19" height="30" viewBox="0 0 19 30" fill="none" xmlns="http://www.w3.org/2000/svg">
<g clip-path="url(#clip0)">
<path d="M2.89225 26.1275H16.0509C17.5541 26.1275 18.7771 24.1785 18.7771 21.7827V7.87906C18.7771 5.48326 17.5541 3.53418 16.0509 3.53418H2.89225C1.38899 3.53418 0.166016 5.48326 0.166016 7.87906V21.7827C0.166016 24.1785 1.38899 26.1275 2.89225 26.1275ZM1.25651 7.87906C1.25651 6.44163 1.99032 5.27213 2.89225 5.27213H16.0509C16.9528 5.27213 17.6866 6.44163 17.6866 7.87906V21.7827C17.6866 23.2201 16.9528 24.3896 16.0509 24.3896H2.89225C1.99032 24.3896 1.25651 23.2201 1.25651 21.7827V7.87906Z" fill="white"/>
<path d="M6.74512 9.00879V20.821L13.3063 14.818L6.74512 9.00879ZM7.83561 11.9624L11.0889 14.8429L7.83561 17.8194V11.9624Z" fill="white"/>
</g>
<defs>
<clipPath id="clip0">
<rect width="18.6111" height="29.661" fill="white" transform="translate(0.166016)"/>
</clipPath>
</defs>
</svg>
